<svg width="100" height="100" fill="none" xmlns="http://www.w3.org/2000/svg"><g clip-path="url(#clip0_5_68)" fill="#000"><path d="M26.676 56.672h-3.333a1.667 1.667 0 100 3.333h3.333a1.666 1.666 0 000-3.333zm4.999 1.667c0 .92.746 1.666 1.667 1.666h58.326a1.666 1.666 0 000-3.333H33.342c-.921 0-1.667.746-1.667 1.667z"/><path d="M1.68 100.001h29.995c.92 0 1.667-.747 1.667-1.667v-2.22a8.269 8.269 0 007.047 3.887h34.114a8.23 8.23 0 007.874-5.6 34.157 34.157 0 018.684-13.22c7.666-7.666 8.88-19.664 8.924-26.145a5.003 5.003 0 00-5-5.03H90.36l8.554-17.412a10.586 10.586 0 00-4.093-13.75 2.433 2.433 0 00-.122-.079 10.577 10.577 0 00-14.046 3.284L61.916 50.007h-1.98a12.46 12.46 0 00-.481-.833l-.221-.36a7.65 7.65 0 01-.42-7.288l.01-.022a5.796 5.796 0 002.227-10.267 10.345 10.345 0 003.953-7.894c0-4.474-3.166-8.397-8.087-10.355a8.332 8.332 0 10-13.822 0c-4.92 1.962-8.087 5.884-8.087 10.355a10.348 10.348 0 003.953 7.9 5.797 5.797 0 002.227 10.265l.013.027a7.648 7.648 0 01-.428 7.292l-.199.322c-.167.261-.298.57-.45.855H26.607a13.11 13.11 0 00-.481-.834l-.222-.36a7.648 7.648 0 01-.42-7.288l.01-.021a5.797 5.797 0 002.229-10.267 10.345 10.345 0 003.952-7.89c0-4.475-3.166-8.398-8.087-10.356a8.333 8.333 0 10-13.822 0C4.845 14.95 1.68 18.872 1.68 23.343c.07 3.093 1.52 5.99 3.952 7.9a5.799 5.799 0 002.227 10.265l.013.027a7.648 7.648 0 01-.428 7.292l-.208.333a14.779 14.779 0 00-.833 14.032l1.166 2.466a4.76 4.76 0 00-1.065.796 4.904 4.904 0 00-1.491 3.55 4.95 4.95 0 00.366 1.857 4.791 4.791 0 00-2.213 1.266 4.937 4.937 0 00-.454 6.551 6.64 6.64 0 00-2.699 5.324v13.332c0 .92.746 1.667 1.667 1.667zm1.665-3.333V85.002a3.333 3.333 0 013.333-3.333h17.615a39.61 39.61 0 015.716 7.343v7.656H3.345zm5-26.664a1.69 1.69 0 011.666-1.666h6.696a36.982 36.982 0 001.115 3.333H10.01c-.92 0-1.666-.746-1.666-1.667zm87.822-16.165c.313.314.487.74.482 1.183-.04 5.964-1.123 16.987-7.948 23.811a37.484 37.484 0 00-9.499 14.533 4.902 4.902 0 01-4.699 3.302H40.39a4.904 4.904 0 01-4.714-3.308 30.62 30.62 0 00-2.468-5.454v-.011a42.473 42.473 0 00-7.018-9.07 22.693 22.693 0 01-4.262-6.075c-.019-.05-.044-.094-.067-.142a42.414 42.414 0 01-3.618-17.594 1.665 1.665 0 011.666-1.674h75.07c.447 0 .876.18 1.19.5zM83.422 23.9a7.239 7.239 0 019.524-2.295c.033.023.07.046.107.068a7.243 7.243 0 012.87 9.452l-9.276 18.883h-20.72L83.422 23.9zM50.006 3.347a4.962 4.962 0 013.345 8.666 19.168 19.168 0 00-6.69 0 4.96 4.96 0 013.345-8.666zM46.536 15.4a15.69 15.69 0 016.953 0c4.818 1.086 8.183 4.351 8.183 7.942a7.9 7.9 0 01-4.748 6.666H43.093a7.902 7.902 0 01-4.752-6.666c0-3.59 3.365-6.856 8.194-7.942zm-4.029 17.941h14.999a2.5 2.5 0 010 5H42.507a2.5 2.5 0 110-5zm2.288 8.332h10.422a11.003 11.003 0 00.875 8.333H43.927a10.998 10.998 0 00.868-8.333zM16.677 3.346a4.96 4.96 0 013.345 8.666 19.168 19.168 0 00-6.69 0 4.959 4.959 0 013.345-8.666zM13.206 15.4c2.289-.52 4.665-.52 6.954 0 4.818 1.086 8.182 4.351 8.182 7.942a7.9 7.9 0 01-4.747 6.666H9.763a7.9 7.9 0 01-4.751-6.666c0-3.59 3.364-6.856 8.194-7.942zM9.178 33.342h14.998a2.5 2.5 0 110 5H9.178a2.5 2.5 0 110-5zm.885 17.59l.21-.332a10.995 10.995 0 001.193-8.926h10.422a10.998 10.998 0 00.875 8.333h-2.855a5 5 0 00-4.999 5.03 53.47 53.47 0 00.993 9.968h-4.966l-1.515-3.223a11.416 11.416 0 01.642-10.85zM5.012 76.67a1.624 1.624 0 01.51-1.186 1.593 1.593 0 011.156-.48h12.666a27.163 27.163 0 002.076 3.332H6.678c-.92 0-1.666-.746-1.666-1.666z"/></g><defs><clipPath id="clip0_5_68"><path fill="#fff" d="M0 0h100v100H0z"/></clipPath></defs></svg>