<svg width="100" height="100" fill="none" xmlns="http://www.w3.org/2000/svg"><path d="M91.498 24.549c-4.56-3.635-10.997-6.61-19.13-8.844-15.643-4.295-33.283-4.76-40.141-4.76C14.457 10.946 0 25.404 0 43.174v13.654c0 17.77 14.457 32.227 32.227 32.227 8.194 0 14.347-2.567 20.863-5.284 6.737-2.81 13.703-5.716 23.502-5.716C89.499 78.053 100 67.552 100 54.645V40.991c0-6.414-2.86-11.946-8.502-16.442zm-1.645 33.389c.74.786 1.975.823 2.76.083a23.465 23.465 0 003.48-4.133v.757c0 10.754-8.748 19.502-19.501 19.502-10.58 0-17.914 3.06-25.006 6.017-6.144 2.563-11.947 4.984-19.36 4.984-15.003 0-27.317-11.73-28.26-26.5C9.451 68.624 20.062 75.4 32.226 75.4c8.195 0 14.348-2.566 20.864-5.284 6.737-2.81 13.703-5.716 23.502-5.716.728 0 1.463-.034 2.186-.102a1.953 1.953 0 10-.365-3.89c-.602.057-1.215.086-1.821.086-10.58 0-17.914 3.059-25.006 6.017-6.144 2.563-11.947 4.983-19.36 4.983-15.615 0-28.32-12.704-28.32-28.32s12.705-28.32 28.32-28.32c6.7 0 23.923.45 39.107 4.62 16.43 4.511 24.76 11.751 24.76 21.518 0 5.33-2.244 10.502-6.157 14.186a1.953 1.953 0 00-.083 2.76z" fill="#000"/><path d="M88.247 59.185a1.953 1.953 0 00-2.646-.913 1.953 1.953 0 001.736 3.5 1.953 1.953 0 00.91-2.587zM46.326 19.309l-.1-.008a1.953 1.953 0 00-.312 3.894l.1.008a1.954 1.954 0 00.312-3.894z" fill="#000"/><path d="M90.968 35.73c-1.937-3.83-6.248-7.139-12.812-9.836-5.312-2.182-11.12-3.56-15.058-4.333a136.86 136.86 0 00-7.351-1.228 1.952 1.952 0 10-.541 3.869c2.447.342 4.85.743 7.14 1.192 13.416 2.632 22.578 7.041 25.136 12.098.538 1.063.8 2.207.8 3.499 0 6.445-5.245 11.69-11.69 11.69-6.518 0-12.846 1.064-19.348 3.255-2.8.944-5.52 2.073-8.15 3.164-1.739.722-3.537 1.468-5.322 2.145-4.505 1.707-7.958 2.436-11.545 2.436-11.308 0-20.508-9.2-20.508-20.508 0-11.309 9.2-20.509 20.508-20.509a179.525 179.525 0 017.783.17 1.953 1.953 0 10.172-3.902 183.657 183.657 0 00-7.955-.173c-13.463 0-24.415 10.951-24.415 24.414 0 13.462 10.952 24.414 24.415 24.414 4.088 0 7.955-.805 12.929-2.69 1.842-.698 3.669-1.456 5.436-2.19 2.569-1.065 5.225-2.168 7.9-3.07 6.093-2.053 12.013-3.05 18.1-3.05 8.6 0 15.596-6.997 15.596-15.596 0-1.919-.4-3.64-1.22-5.262z" fill="#000"/><path d="M34.097 26.527c-5.46 0-9.902 4.029-9.902 8.98 0 4.952 4.442 8.98 9.902 8.98 5.46 0 9.903-4.028 9.903-8.98 0-4.951-4.442-8.98-9.903-8.98zm0 14.054c-3.306 0-5.996-2.276-5.996-5.074 0-2.797 2.69-5.074 5.996-5.074 3.307 0 5.997 2.276 5.997 5.074s-2.69 5.074-5.997 5.074z" fill="#000"/></svg>