<svg width="100" height="100" fill="none" xmlns="http://www.w3.org/2000/svg"><path d="M9.766 43.312a1.368 1.368 0 00-1.368 1.367v6.055a1.367 1.367 0 102.735 0v-6.055a1.368 1.368 0 00-1.367-1.367zm17.158 5.204A13.086 13.086 0 1040.01 61.602a13.101 13.101 0 00-13.086-13.086zm0 23.437a10.352 10.352 0 1110.352-10.351 10.363 10.363 0 01-10.352 10.351z" fill="#000"/><path d="M90.234 69.336H71.922l.145-1.413v-.017l1.875-18.204v-.013l1.527-14.783a1.37 1.37 0 00-1.36-1.508H49.261a10.703 10.703 0 00-7.813-6.29v-6.99a1.368 1.368 0 00-1.37-1.368h-9.445v-5.81h7.749a1.367 1.367 0 001.367-1.367 6.57 6.57 0 00-5.882-6.546L21.62 3.72a1.367 1.367 0 00-1.512 1.36v6.494a1.368 1.368 0 001.367 1.367h1.736v5.81h-9.438a1.368 1.368 0 00-1.367 1.367v6.992a10.757 10.757 0 00-8.695 10.54v52.585a6.062 6.062 0 006.055 6.055h34.32a6.02 6.02 0 003.369-1.026 1.363 1.363 0 001.318 1.026h46.149a1.368 1.368 0 001.367-1.367V75.39a6.062 6.062 0 00-6.055-6.055zm3.32 6.055v.195H65.82v-.195a3.324 3.324 0 013.32-3.32h21.094a3.324 3.324 0 013.32 3.32zm-24.413-6.055a6.062 6.062 0 00-6.055 6.055v7.953H50.007L48.54 69.133h20.654l-.021.203h-.032zM46.663 50.93H71.07l-1.594 15.468H48.258l-.24-2.314-1.355-13.154zm24.688-2.735H46.378l-1.244-12.062h27.46L71.35 48.195zM22.842 6.6l10.735 1.147a3.843 3.843 0 013.19 2.46H22.84l.001-3.607zm3.103 6.34h1.953v5.811h-1.953v-5.81zm12.766 8.545v5.422H15.14v-5.422h23.57zm5.375 72.07H9.766a3.324 3.324 0 01-3.32-3.32V37.648a8.016 8.016 0 018.007-8.007h24.945a7.983 7.983 0 016.788 3.757h-2.569a1.369 1.369 0 00-1.36 1.508l3.1 30.034.306 2.969v.007l1.743 16.865v5.453a3.324 3.324 0 01-3.32 3.32zm6.055-3.32v-4.156h12.945v7.477H50.14v-3.32zm43.414 3.32H65.82V78.32h27.735v15.235z" fill="#000"/><path d="M79.688 80.143c-2.657 0-4.819 2.6-4.819 5.794 0 3.195 2.162 5.795 4.819 5.795 2.656 0 4.817-2.6 4.817-5.794 0-3.195-2.161-5.795-4.817-5.795zm0 8.855c-1.13 0-2.084-1.402-2.084-3.06 0-1.66.955-3.06 2.084-3.06 1.128 0 2.083 1.4 2.083 3.06 0 1.658-.955 3.06-2.084 3.06z" fill="#000"/></svg>