<svg width="100" height="100" fill="none" xmlns="http://www.w3.org/2000/svg"><path d="M17.188 89.063v-37.5a36.29 36.29 0 012.951-14.379l3.218-7.51a39.12 39.12 0 00.78-1.962 29.574 29.574 0 0111.598.234 32.39 32.39 0 0012.227.361c.176.458.361.914.555 1.366l3.218 7.512 2.873-1.23-3.219-7.512a36.434 36.434 0 01-2.918-12.818H50a1.562 1.562 0 001.563-1.563v-6.25a4.693 4.693 0 00-4.688-4.687H25a4.693 4.693 0 00-4.688 4.688v6.25a1.563 1.563 0 001.563 1.562h1.529a36.44 36.44 0 01-2.918 12.815l-3.219 7.512a39.402 39.402 0 00-3.204 15.61v37.5a7.821 7.821 0 007.812 7.813h25V93.75h-25a4.693 4.693 0 01-4.688-4.688zm6.25-81.25A1.564 1.564 0 0125 6.25h21.875a1.564 1.564 0 011.563 1.563V12.5h-25V7.812zm21.905 7.812a39.501 39.501 0 001.598 9.674 29.21 29.21 0 01-10.527-.404 32.7 32.7 0 00-11.22-.505 39.533 39.533 0 001.338-8.765h18.811z" fill="#000"/><path d="M26.022 31.39l-1.685 3.932 2.872 1.231 1.686-3.933-2.873-1.23zm-5.709 20.173v6.25h3.125v-6.25a30.08 30.08 0 012.445-11.916l-2.87-1.23a33.185 33.185 0 00-2.7 13.145zm65.625-4.688c0-5.13-10.219-7.813-20.313-7.813s-20.313 2.684-20.313 7.813c0 .188.016.377.044.563l4.652 48.03a1.563 1.563 0 001.554 1.407h28.126a1.563 1.563 0 001.554-1.406l4.652-48.03a3.74 3.74 0 00.043-.564zm-4.26 12.793l-.79.263a24.77 24.77 0 01-15.025.228 27.982 27.982 0 00-16.101 0l-.142.043-.77-8.725c3.856 2.12 10.34 3.21 16.775 3.21 6.434 0 12.92-1.09 16.776-3.21l-.723 8.191zm-16.053-17.48c11.05 0 17.107 3.056 17.184 4.656l-.018.195c-.389 1.63-6.415 4.523-17.166 4.523-10.75 0-16.777-2.893-17.166-4.523l-.018-.195c.077-1.6 6.133-4.657 17.184-4.657zM78.274 93.75H52.975l-3.059-30.374.744-.223a24.966 24.966 0 0114.305 0 27.868 27.868 0 0016.385-.087L78.274 93.75z" fill="#000"/><path d="M56.481 66.86l-3.112.275.292 3.315 3.113-.274-.293-3.316zm.568 6.423l-3.11.309 1.24 12.5 3.11-.309-1.24-12.5z" fill="#000"/></svg>