<svg width="100" height="100" fill="none" xmlns="http://www.w3.org/2000/svg"><path d="M54.061 0H40.735c-.92 0-1.666.746-1.666 1.666v35.37L31.013 9.872a1.677 1.677 0 00-.646-.895L21.61 2.885a1.689 1.689 0 00-1.425-.228c-.485.144-.879.5-1.07.97l-4.019 9.878a1.67 1.67 0 00-.053 1.103l9.5 32.036h-2.132c-.92 0-1.666.745-1.666 1.665v49.975c0 .92.746 1.666 1.666 1.666h49.974c.92 0 1.666-.746 1.666-1.666V48.309c0-.92-.745-1.665-1.666-1.665H67.6l10.44-30.505 3.151 1.078-8.63 25.218 3.156 1.08L84.88 16.72a1.666 1.666 0 00-1.037-2.116l-4.724-1.61.54-1.575a6.664 6.664 0 00-12.603-4.324l-11.328 33.08V1.666c0-.92-.745-1.666-1.666-1.666zm-1.665 3.331v3.332h-3.332v3.332h3.332v3.332h-6.663v3.331h6.663v3.331h-3.332v3.332h3.332v3.332h-6.663v3.332h6.663v3.331h-3.332v3.332h3.332v3.331h-6.663v3.332h6.663v3.332h-9.995V3.33h9.995zM38.444 46.644h-3.476l-9.87-33.28 3.195-.949 10.151 34.229zM21.412 6.812l4.2 2.921-6.123 1.818 1.923-4.74zm-2.707 8.446l3.206-.949 9.584 32.335h-3.477l-9.313-31.386zm52.015 81.36H24.077V49.975H70.72v46.643zM57.037 46.644l2.377-6.947 6.308 2.156-1.644 4.79h-7.041zm9.76-7.944l-6.305-2.157 8.09-23.64 6.303 2.156-8.088 23.642zM74.43 6.1a3.332 3.332 0 012.074 4.228l-.54 1.578L69.66 9.75l.54-1.576A3.331 3.331 0 0174.43 6.1z" fill="#000"/></svg>