<svg width="100" height="100" fill="none" xmlns="http://www.w3.org/2000/svg"><g clip-path="url(#clip0_5_2)" fill="#000"><path d="M77.652 33.895h-3.91v-3.759c0-5.25-2.096-10.132-5.92-13.783-3.629-3.456-8.403-5.4-13.523-5.573l.648-6.027V4.58c0-.648.864-1.34 1.707-1.34h13.545V0H56.654c-2.593 0-4.883 2.074-4.947 4.472l-.67 6.265h-4.904c-11.147 0-19.875 8.511-19.875 19.356v3.759h-3.91c-.886 0-1.62.734-1.62 1.62v9.138c0 .886.734 1.62 1.62 1.62h4.062l4.558 46.123c0 .021 0 .064.021.086.67 4.234 4.407 7.561 8.512 7.561H60.24c4.428 0 8.166-3.37 8.533-7.647L73.59 46.23h4.062c.885 0 1.62-.734 1.62-1.62v-9.138c0-.843-.735-1.577-1.62-1.577zM53.932 14.02c9.31.173 16.57 7.194 16.57 16.116v3.759h-18.71l2.139-19.875zM29.499 30.136c0-9.052 7.302-16.116 16.634-16.116h4.558l-2.138 19.875H29.499v-3.759zm36.033 61.936v.043c-.215 2.636-2.527 4.688-5.292 4.688H39.5c-2.528 0-4.86-2.096-5.314-4.775l-4.515-45.755h40.656l-4.796 45.799zm10.5-49.039H23.969v-5.898H76.03v5.898z"/><path d="M37.34 89.263c.022.022.022.043.022.065.432 2.16 2.269 3.716 4.343 3.716h4.968c.907 0 1.62-.713 1.62-1.62 0-.886-.734-1.62-1.62-1.62h-4.968c-.605 0-1.037-.54-1.167-1.102l-1.383-8.296a1.615 1.615 0 00-1.858-1.34c-.885.152-1.49.973-1.339 1.859l1.383 8.338z"/></g><defs><clipPath id="clip0_5_2"><path fill="#fff" d="M0 0h100v100H0z"/></clipPath></defs></svg>