<svg width="30" height="30" fill="none" xmlns="http://www.w3.org/2000/svg"><path fill-rule="evenodd" clip-rule="evenodd" d="M9.833 0h11A9.168 9.168 0 0130 9.167v11a9.168 9.168 0 01-9.167 9.166h-11a9.168 9.168 0 01-9.166-9.166v-11A9.168 9.168 0 019.833 0zm11 26.583a6.424 6.424 0 006.417-6.416v-11a6.424 6.424 0 00-6.417-6.417h-11a6.424 6.424 0 00-6.416 6.417v11a6.424 6.424 0 006.416 6.416h11z" fill="#fff"/><path fill-rule="evenodd" clip-rule="evenodd" d="M8 14.667a7.334 7.334 0 1114.667 0 7.334 7.334 0 01-14.667 0zm2.75 0a4.59 4.59 0 004.583 4.583 4.59 4.59 0 004.584-4.583 4.589 4.589 0 00-4.584-4.583 4.589 4.589 0 00-4.583 4.583z" fill="#fff"/><circle cx="23.217" cy="6.783" fill="#fff" r=".977"/></svg>