<svg width="35" height="35" fill="none" xmlns="http://www.w3.org/2000/svg"><path d="M17.5 35C27.18 35 35 27.189 35 17.5A17.47 17.47 0 0017.5 0 17.47 17.47 0 000 17.5C0 27.189 7.82 35 17.5 35zm0-32.66c8.399 0 15.16 6.761 15.16 15.16 0 8.399-6.761 15.16-15.16 15.16A15.127 15.127 0 012.34 17.5C2.34 9.101 9.1 2.34 17.5 2.34z" fill="#688F4E"/><path d="M11.085 18.203l7.696 7.695c.463.463 1.166.463 1.637 0 .463-.462.463-1.165 0-1.636L13.657 17.5l6.761-6.762c.463-.462.463-1.165 0-1.637-.231-.23-.462-.347-.819-.347-.23 0-.587.116-.934.232l-7.58 7.58c-.23.231-.347.462-.347.818 0 .347.116.587.347.819z" fill="#2B463C"/></svg>