<svg width="30" height="25" fill="none" xmlns="http://www.w3.org/2000/svg"><path d="M29.333 3.488c-1.09.478-2.253.796-3.465.95a5.98 5.98 0 002.646-3.324A12.018 12.018 0 0124.7 2.57a6.012 6.012 0 00-10.402 4.112c0 .476.04.935.139 1.371-5-.244-9.424-2.64-12.396-6.29-.518.9-.823 1.93-.823 3.04A6.022 6.022 0 003.89 9.8a5.939 5.939 0 01-2.717-.74v.066a6.04 6.04 0 004.818 5.908 6 6 0 01-1.576.198c-.385 0-.774-.022-1.139-.102.78 2.381 2.99 4.132 5.62 4.189a12.083 12.083 0 01-7.457 2.565c-.493 0-.966-.022-1.439-.083A16.93 16.93 0 009.225 24.5c11.066 0 17.116-9.167 17.116-17.113 0-.265-.009-.522-.022-.777a11.997 11.997 0 003.014-3.122z" fill="#fff"/></svg>